<svg width="51" height="49" viewBox="0 0 51 49" fill="none" xmlns="http://www.w3.org/2000/svg">
<path fill-rule="evenodd" clip-rule="evenodd" d="M43.4977 10.6842C41.2416 13.5911 38.8988 16.4979 36.5993 19.4482C38.5517 21.0101 40.4607 22.5719 42.3696 24.1772C45.1029 26.5634 48.0965 28.7327 49.832 32.03C50.96 34.1559 49.7018 36.4988 47.7928 37.1929C47.4458 37.7136 47.0553 38.2342 46.7082 38.7548C45.5802 40.2733 44.5389 41.7918 42.5432 42.1823C42.4998 42.1823 42.4998 42.2257 42.4564 42.2257C38.6384 44.395 33.3888 38.4077 30.8724 36.1083C29.4841 34.8935 28.1391 33.7221 26.7941 32.5073C23.7571 36.8892 20.9371 41.4014 18.5508 46.1738C17.9868 47.3018 16.9022 47.996 15.7308 48.0828C12.9541 48.9939 10.0906 47.3018 7.83457 45.7399C5.66528 44.2648 3.58277 42.6162 2.06426 40.4035C0.155292 39.1887 -0.452109 36.412 1.28332 34.5464C1.67379 34.1125 2.10765 33.6353 2.49812 33.2014C2.58489 33.1581 2.62828 33.1147 2.67167 33.0713C6.35945 29.21 10.1774 25.4788 14.0387 21.8344C10.5679 19.1445 7.09701 16.3678 4.01662 13.2006C2.28119 11.4652 2.97537 8.73188 4.79757 7.64724C7.18378 5.0441 10.3509 3.39544 13.3446 1.57323C15.4705 0.315048 17.9434 1.35631 18.8112 3.35205C20.1127 4.52347 21.154 5.86842 22.282 7.17C22.4556 7.30015 22.5857 7.38693 22.7159 7.51708L25.4926 8.9922L24.8852 9.77314C25.2323 10.0768 25.6227 10.3805 25.9698 10.7276C28.5296 8.29803 31.0893 5.82504 33.5623 3.30866C34.2131 1.52985 36.3824 0.358433 38.3781 1.26953C39.5929 1.87693 40.8077 2.44095 42.0225 3.09174C44.0617 3.26528 45.8405 5.21764 45.4934 7.38693C45.45 8.73188 44.6691 10.0335 43.4977 10.6842Z" fill="#CFCFCF"/>
<path fill-rule="evenodd" clip-rule="evenodd" d="M47.3579 33.3292C45.8828 30.5091 42.9325 28.3398 40.5463 26.2573C37.9866 24.088 35.34 21.9621 32.7369 19.8796C35.7305 16.0616 38.8109 12.2003 41.8045 8.33898C42.3685 8.33898 42.8024 7.6882 42.7156 7.12418C42.9759 6.38662 42.0648 5.60568 41.3707 5.90938C40.0257 5.12844 38.5506 4.43426 37.2056 3.78348C36.6416 3.52316 35.9908 4.08718 36.2078 4.60781C32.9104 7.94851 29.483 11.2024 26.0555 14.4564C24.6238 13.2416 23.192 11.9834 21.8037 10.6818C21.7603 10.4215 21.6735 10.2046 21.4566 10.031C21.3698 9.94426 21.2831 9.90087 21.2397 9.85748C21.2397 9.85748 21.1963 9.85748 21.1963 9.8141C20.936 9.64055 20.6757 9.42363 20.4153 9.25008C19.1138 7.73158 17.8556 6.08292 16.3805 4.91151C16.3371 4.17395 15.5995 3.47978 14.7752 3.95702C12.0853 5.60568 8.74457 7.29772 6.66206 9.72733C6.61867 9.8141 6.57528 9.90087 6.5319 9.98764C5.96788 9.98764 5.53403 10.812 5.96788 11.2892C9.74244 15.1072 14.081 18.3611 18.2894 21.6584C13.6038 26.0404 8.9615 30.4657 4.57954 35.108C4.53615 35.108 4.53615 35.1514 4.49277 35.1514C4.1023 35.5852 3.71182 35.9757 3.32135 36.4096C2.62718 37.1471 3.19119 38.1016 3.92875 38.2318C5.27371 40.4011 7.31284 42.0497 9.39536 43.4814C10.8271 44.4359 13.4302 46.2147 15.209 45.347C15.5561 45.3904 15.9032 45.3036 16.0768 44.9566C18.9836 39.0995 22.5412 33.6329 26.3158 28.3832C28.4417 30.2488 30.5676 32.1578 32.6935 34.0233C33.3009 34.544 40.2426 41.8762 41.414 39.4466C41.5876 39.49 41.7611 39.49 41.9347 39.49C43.0193 39.273 43.887 37.9281 44.451 37.1037C45.0584 36.2794 45.7092 35.3683 46.2299 34.5006C46.9674 34.9778 47.7484 33.98 47.3579 33.3292Z" fill="white"/>
</svg>
